<svg width="60" height="60" viewBox="0 0 60 60" xmlns="http://www.w3.org/2000/svg">
  <!-- Logo Option 1: Code Brackets with Earth -->
  <circle cx="30" cy="30" r="28" fill="#3498db" stroke="#2980b9" stroke-width="2"/>

  <!-- Earth Globe -->
  <circle cx="30" cy="30" r="12" fill="#27ae60"/>
  <circle cx="30" cy="30" r="12" fill="none" stroke="#2ecc71" stroke-width="1"/>

  <!-- Continents -->
  <path d="M25 25 Q28 22 32 25 Q35 28 32 32 Q28 35 25 32 Q22 28 25 25" fill="#2ecc71"/>
  <path d="M20 30 Q23 27 26 30 Q23 33 20 30" fill="#2ecc71"/>
  <path d="M34 28 Q37 25 40 28 Q37 31 34 28" fill="#2ecc71"/>

  <!-- Grid lines for globe effect -->
  <circle cx="30" cy="30" r="12" fill="none" stroke="#34495e" stroke-width="0.5" opacity="0.3"/>
  <line x1="18" y1="30" x2="42" y2="30" stroke="#34495e" stroke-width="0.5" opacity="0.3"/>
  <ellipse cx="30" cy="30" rx="12" ry="6" fill="none" stroke="#34495e" stroke-width="0.5" opacity="0.3"/>
  <ellipse cx="30" cy="30" rx="6" ry="12" fill="none" stroke="#34495e" stroke-width="0.5" opacity="0.3"/>

  <!-- Code Brackets -->
  <path d="M12 20 L12 25 L18 30 L12 35 L12 40" stroke="white" stroke-width="2" fill="none"/>
  <path d="M48 20 L48 25 L42 30 L48 35 L48 40" stroke="white" stroke-width="2" fill="none"/>
</svg>